# File created by Blade
# Date/Time:  Wed Jan 21 18:34:41 2015
# Frame Rate: 120.000 fps
#------------------------------------------------------
:FULLY-SPECIFIED
:DEGREES
2343
root 2.593301 32.752639 -6.911059 44.822394 2.977722 1.184603
RightUpLeg -39.832027 -17.542362 9.177365
RightLeg -2.265189 -0.000000 0.000000
RightFoot -8.625264 -0.494945 23.001927
RightToeBase 21.547864 -0.000000 -0.000000
LeftUpLeg -40.837933 10.980316 -3.967802
LeftLeg 0.425499 -0.000000 -0.000000
LeftFoot -3.283795 -7.718328 -15.380301
LeftToeBase 3.608323 -0.000000 -0.000000
Spine -45.142293 0.857997 -2.529640
RightShoulder -25.135195 10.683121 -50.790330
RightArm -4.116694 -11.506188 40.517364
RightForeArm 2.455962 -0.000000 -3.958521
RightHand 10.714629 0.000000 2.286759
RightHandThumb1 -24.326973 -0.000000 -32.862282
LeftShoulder -16.274527 5.075720 42.150307
LeftArm 18.489793 -14.515848 -40.632586
LeftForeArm 22.920101 -0.000000 -2.836130
LeftHand -23.042995 0.000000 -2.116874
LeftHandThumb1 -26.253704 0.000000 33.147579
Head -2.464474 -2.376562 5.693751
2344
root 2.595143 32.752249 -6.910341 44.815499 2.934148 1.178885
RightUpLeg -39.836642 -17.527656 9.159959
RightLeg -2.245654 -0.000000 0.000000
RightFoot -8.640204 -0.488140 22.935751
RightToeBase 21.620711 -0.000000 -0.000000
LeftUpLeg -40.825856 10.982293 -3.968196
LeftLeg 0.436887 -0.000000 -0.000000
LeftFoot -3.316877 -7.686043 -15.381833
LeftToeBase 3.604300 -0.000000 -0.000000
Spine -45.134318 0.853923 -2.517392
RightShoulder -25.104672 10.733166 -50.779052
RightArm -4.069590 -11.511141 40.535594
RightForeArm 2.446027 0.000000 -3.966089
RightHand 10.813206 0.000000 2.254463
RightHandThumb1 -24.326973 -0.000000 -32.862282
LeftShoulder -16.267780 5.107291 42.118555
LeftArm 18.535556 -14.476362 -40.658575
LeftForeArm 22.883054 -0.000000 -2.884380
LeftHand -23.002007 -0.000000 -2.170450
LeftHandThumb1 -26.253704 0.000000 33.147579
Head -2.405408 -2.348468 5.696825
2345
root 2.596942 32.751880 -6.910046 44.813352 2.896853 1.178257
RightUpLeg -39.846113 -17.527564 9.156530
RightLeg -2.238312 -0.000000 0.000000
RightFoot -8.645432 -0.475685 22.943855
RightToeBase 21.622742 -0.000000 -0.000000
LeftUpLeg -40.816493 10.974806 -3.967528
LeftLeg 0.440976 -0.000000 -0.000000
LeftFoot -3.345295 -7.645524 -15.369556
LeftToeBase 3.620115 -0.000000 -0.000000
Spine -45.132180 0.853579 -2.513438
RightShoulder -25.069486 10.755118 -50.758352
RightArm -4.014980 -11.520552 40.546202
RightForeArm 2.412607 -0.000000 -3.973502
RightHand 10.807067 0.000000 2.237200
RightHandThumb1 -24.326973 -0.000000 -32.862282
LeftShoulder -16.242108 5.134103 42.071926
LeftArm 18.576529 -14.561365 -40.692237
LeftForeArm 22.837841 -0.000000 -2.920860
LeftHand -23.071937 -0.000000 -2.194898
LeftHandThumb1 -26.253704 0.000000 33.147579
Head -2.340014 -2.318266 5.696187
2346
root 2.598216 32.751464 -6.909353 44.807530 2.854465 1.170810
RightUpLeg -39.851898 -17.515762 9.145229
RightLeg -2.222809 -0.000000 0.000000
RightFoot -8.626787 -0.457574 22.895975
RightToeBase 21.577043 -0.000000 -0.000000
LeftUpLeg -40.804597 10.988697 -3.974573
LeftLeg 0.444163 -0.000000 -0.000000
LeftFoot -3.363598 -7.618522 -15.383411
LeftToeBase 3.584158 -0.000000 -0.000000
Spine -45.126659 0.858088 -2.509752
RightShoulder -25.026715 10.794509 -50.729853
RightArm -3.979176 -11.574981 40.553940
RightForeArm 2.422080 -0.000000 -3.970153
RightHand 10.726355 -0.000000 2.238639
RightHandThumb1 -24.326973 -0.000000 -32.862282
LeftShoulder -16.233869 5.165107 42.040649
LeftArm 18.620994 -14.554423 -40.729527
LeftForeArm 22.781963 0.000000 -2.953530
LeftHand -23.128739 -0.000000 -2.189612
LeftHandThumb1 -26.253704 0.000000 33.147579
Head -2.275285 -2.291953 5.704328
2347
root 2.598811 32.751006 -6.908953 44.806527 2.817614 1.165084
RightUpLeg -39.858560 -17.506248 9.142173
RightLeg -2.218763 -0.000000 0.000000
RightFoot -8.624264 -0.433568 22.891930
RightToeBase 21.613871 -0.000000 -0.000000
LeftUpLeg -40.797628 10.991556 -3.973261
LeftLeg 0.447728 -0.000000 -0.000000
LeftFoot -3.379792 -7.593850 -15.375683
LeftToeBase 3.579400 -0.000000 -0.000000
Spine -45.122043 0.855742 -2.505150
RightShoulder -24.983185 10.814220 -50.691642
RightArm -3.925164 -11.624732 40.558777
RightForeArm 2.495782 0.000000 -3.973382
RightHand 10.650727 -0.000000 2.314150
RightHandThumb1 -24.326973 -0.000000 -32.862282
LeftShoulder -16.232525 5.163721 42.021203
LeftArm 18.642688 -14.565762 -40.774612
LeftForeArm 22.862258 0.000000 -2.971379
LeftHand -23.039289 -0.000000 -2.203651
LeftHandThumb1 -26.253704 0.000000 33.147579
Head -2.224350 -2.264463 5.714878
2348
root 2.599654 32.750949 -6.908845 44.806480 2.770056 1.162709
RightUpLeg -39.867942 -17.486253 9.122977
RightLeg -2.206614 -0.000000 0.000000
RightFoot -8.625147 -0.412796 22.914407
RightToeBase 21.609740 -0.000000 -0.000000
LeftUpLeg -40.789945 11.008827 -3.990723
LeftLeg 0.444836 -0.000000 -0.000000
LeftFoot -3.392569 -7.569677 -15.375450
LeftToeBase 3.611483 -0.000000 -0.000000
Spine -45.121031 0.857595 -2.512155
RightShoulder -24.926318 10.824219 -50.659575
RightArm -3.875419 -11.553256 40.571351
RightForeArm 2.473427 -0.000000 -4.034759
RightHand 10.777925 0.000000 2.428580
RightHandThumb1 -24.326973 -0.000000 -32.862282
LeftShoulder -16.220788 5.169514 42.005042
LeftArm 18.652949 -14.531514 -40.793111
LeftForeArm 22.743607 -0.000000 -3.005363
LeftHand -23.083530 0.000000 -2.385667
LeftHandThumb1 -26.253704 0.000000 33.147579
Head -2.158796 -2.231669 5.730221
2349
root 2.600150 32.750523 -6.908431 44.809487 2.735172 1.156849
RightUpLeg -39.871966 -17.467700 9.112259
RightLeg -2.210138 -0.000000 0.000000
RightFoot -8.616867 -0.403890 22.908809
RightToeBase 21.642466 -0.000000 -0.000000
LeftUpLeg -40.791629 11.029242 -4.005306
LeftLeg 0.451392 -0.000000 -0.000000
LeftFoot -3.407179 -7.562789 -15.375086
LeftToeBase 3.606351 -0.000000 -0.000000
Spine -45.117398 0.863141 -2.519530
RightShoulder -24.896888 10.864065 -50.642012
RightArm -3.861571 -11.600858 40.587879
RightForeArm 2.513993 -0.000000 -4.068585
RightHand 10.863343 -0.000000 2.502350
RightHandThumb1 -24.326973 -0.000000 -32.862282
LeftShoulder -16.218150 5.150201 41.979518
LeftArm 18.684442 -14.644505 -40.857072
LeftForeArm 22.944280 -0.000000 -3.028130
LeftHand -23.273731 -0.000000 -2.129383
LeftHandThumb1 -26.253704 0.000000 33.147579
Head -2.119908 -2.209858 5.749818
2350
root 2.601512 32.750149 -6.908092 44.815995 2.693301 1.156780
RightUpLeg -39.884164 -17.454653 9.097602
RightLeg -2.205435 -0.000000 0.000000
RightFoot -8.610487 -0.382640 22.919916
RightToeBase 21.634795 -0.000000 -0.000000
LeftUpLeg -40.791961 11.045163 -4.027012
LeftLeg 0.449300 -0.000000 -0.000000
LeftFoot -3.413803 -7.541841 -15.339416
LeftToeBase 3.566630 -0.000000 -0.000000
Spine -45.118054 0.871894 -2.529932
RightShoulder -24.870894 10.913228 -50.625382
RightArm -3.851475 -11.676861 40.607488
RightForeArm 2.581603 -0.000000 -4.073236
RightHand 10.923335 -0.000000 2.460489
RightHandThumb1 -24.326973 -0.000000 -32.862282
LeftShoulder -16.224198 5.168398 41.947614
LeftArm 18.753709 -14.623254 -40.891485
LeftForeArm 22.935375 -0.000000 -3.085656
LeftHand -23.995236 -0.000000 -1.998208
LeftHandThumb1 -26.253704 0.000000 33.147579
Head -2.079676 -2.188553 5.752358
2351
root 2.602034 32.749854 -6.907065 44.816575 2.664397 1.157535
RightUpLeg -39.889410 -17.471517 9.108437
RightLeg -2.215043 -0.000000 0.000000
RightFoot -8.595817 -0.347484 22.888519
RightToeBase 21.657555 -0.000000 -0.000000
LeftUpLeg -40.784028 11.054550 -4.039081
LeftLeg 0.445687 -0.000000 -0.000000
LeftFoot -3.424158 -7.531358 -15.348480
LeftToeBase 3.574613 -0.000000 -0.000000
Spine -45.112993 0.873281 -2.541786
RightShoulder -24.848989 10.950771 -50.608782
RightArm -3.830341 -11.668747 40.625615
RightForeArm 2.555491 -0.000000 -4.057492
RightHand 10.774005 -0.000000 2.533971
RightHandThumb1 -24.326973 -0.000000 -32.862282
LeftShoulder -16.216916 5.151005 41.932281
LeftArm 18.770866 -14.668783 -40.931452
LeftForeArm 22.971243 0.000000 -3.105723
LeftHand -24.198809 -0.000000 -1.958963
LeftHandThumb1 -26.253704 0.000000 33.147579
Head -2.038121 -2.187696 5.769263
2352
root 2.601683 32.749491 -6.906354 44.822661 2.637190 1.152245
RightUpLeg -39.896915 -17.451143 9.099381
RightLeg -2.212005 -0.000000 0.000000
RightFoot -8.581521 -0.353231 22.887287
RightToeBase 21.602382 -0.000000 -0.000000
LeftUpLeg -40.788491 11.077363 -4.052288
LeftLeg 0.448596 -0.000000 -0.000000
LeftFoot -3.432535 -7.540564 -15.376434
LeftToeBase 3.608580 -0.000000 -0.000000
Spine -45.114201 0.880576 -2.546924
RightShoulder -24.828829 11.003538 -50.607441
RightArm -3.812571 -11.668040 40.646084
RightForeArm 2.559576 -0.000000 -4.092149
RightHand 10.705377 -0.000000 2.608733
RightHandThumb1 -24.326973 -0.000000 -32.862282
LeftShoulder -16.213168 5.146199 41.905898
LeftArm 18.796273 -14.720183 -40.962525
LeftForeArm 22.995783 -0.000000 -3.144300
LeftHand -24.209871 -0.000000 -2.028820
LeftHandThumb1 -26.253704 0.000000 33.147579
Head -1.994977 -2.175992 5.770856
2353
root 2.601138 32.749128 -6.905839 44.826357 2.613492 1.145416
RightUpLeg -39.900297 -17.446607 9.106168
RightLeg -2.222288 -0.000000 0.000000
RightFoot -8.570795 -0.328181 22.929347
RightToeBase 21.631560 -0.000000 -0.000000
LeftUpLeg -40.788769 11.098832 -4.063059
LeftLeg 0.446938 -0.000000 -0.000000
LeftFoot -3.436237 -7.544075 -15.367607
LeftToeBase 3.591359 -0.000000 -0.000000
Spine -45.112953 0.882502 -2.546538
RightShoulder -24.805538 11.031257 -50.591614
RightArm -3.763837 -11.604010 40.656267
RightForeArm 2.557488 -0.000000 -4.171777
RightHand 10.729099 -0.000000 2.607709
RightHandThumb1 -24.326973 -0.000000 -32.862282
LeftShoulder -16.203504 5.135054 41.894082
LeftArm 18.804062 -14.726767 -41.003334
LeftForeArm 23.011151 -0.000000 -3.128742
LeftHand -24.154225 -0.000000 -2.146609
LeftHandThumb1 -26.253704 0.000000 33.147579
Head -1.945389 -2.167420 5.782568
2354
root 2.601217 32.748810 -6.904591 44.829952 2.597367 1.142586
RightUpLeg -39.901158 -17.450862 9.112825
RightLeg -2.233196 -0.000000 0.000000
RightFoot -8.533492 -0.282302 22.970031
RightToeBase 21.562324 -0.000000 -0.000000
LeftUpLeg -40.785860 11.113824 -4.074555
LeftLeg 0.439123 -0.000000 -0.000000
LeftFoot -3.440931 -7.541618 -15.361005
LeftToeBase 3.597038 -0.000000 -0.000000
Spine -45.114316 0.888393 -2.552042
RightShoulder -24.780941 11.073936 -50.577259
RightArm -3.752463 -11.596343 40.648381
RightForeArm 2.448731 -0.000000 -4.167308
RightHand 10.548393 -0.000000 2.756912
RightHandThumb1 -24.326973 -0.000000 -32.862282
LeftShoulder -16.192569 5.160791 41.863029
LeftArm 18.857754 -14.742785 -41.031062
LeftForeArm 23.076325 -0.000000 -3.182526
LeftHand -24.072288 0.000000 -2.165591
LeftHandThumb1 -26.253704 0.000000 33.147579
Head -1.881179 -2.160123 5.781851
2355
root 2.602193 32.748542 -6.903547 44.835447 2.578966 1.146573
RightUpLeg -39.905234 -17.446680 9.103681
RightLeg -2.236352 -0.000000 0.000000
RightFoot -8.560075 -0.304646 22.906700
RightToeBase 21.634566 -0.000000 -0.000000
LeftUpLeg -40.782168 11.117502 -4.087203
LeftLeg 0.428673 -0.000000 -0.000000
LeftFoot -3.432630 -7.533369 -15.348780
LeftToeBase 3.552926 -0.000000 -0.000000
Spine -45.114515 0.887073 -2.558733
RightShoulder -24.754817 11.123241 -50.574947
RightArm -3.742240 -11.641644 40.672194
RightForeArm 2.483952 -0.000000 -4.256569
RightHand 10.781998 -0.000000 2.786250
RightHandThumb1 -24.326973 -0.000000 -32.862282
LeftShoulder -16.177859 5.162266 41.827162
LeftArm 18.890609 -14.706285 -41.016881
LeftForeArm 22.980760 -0.000000 -3.240965
LeftHand -23.855745 -0.000000 -2.270704
LeftHandThumb1 -26.253704 0.000000 33.147579
Head -1.832322 -2.161683 5.791727
